<svg height="56" viewBox="0 0 56 56" width="56" xmlns="http://www.w3.org/2000/svg"><path d="m27.9883 43.1992c.9609 0 2.1797-3.75 2.1797-10.664v-11.0391c3.8203-.9844 6.6328-4.4531 6.6328-8.5781 0-4.8516-3.9141-8.8125-8.8125-8.8125-4.875 0-8.7891 3.9609-8.7891 8.8125 0 4.125 2.7891 7.5937 6.6094 8.5546v11.0626c0 6.8906 1.2422 10.664 2.1797 10.664zm-2.5078-29.789c-1.5938 0-3-1.4063-3-3.0235 0-1.6406 1.4062-3.0234 3-3.0234 1.6406 0 3 1.3828 3 3.0234 0 1.6172-1.3594 3.0235-3 3.0235zm2.5078 38.4843c14.1797 0 22.3828-4.9218 22.3828-10.1484 0-6.3047-10.0312-10.125-16.5-10.1484v3.6562c4.5.0235 11.5078 2.4609 11.5078 5.9297 0 3.6797-6.6093 6.7734-17.3906 6.7734-10.7578 0-17.3672-3.0703-17.3672-6.7734 0-3.4688 7.0078-5.9062 11.5078-5.9297v-3.6562c-6.4687.0234-16.5 3.8437-16.5 10.1484 0 5.2266 8.2032 10.1484 22.3594 10.1484z"/></svg>